<svg id="Layer_1" data-name="Layer 1" xmlns="http://www.w3.org/2000/svg" viewBox="0 0 720 144.35"><defs><style>.cls-1{fill:#fff;}.cls-2{fill:#d33200;}</style></defs><title>iamnikhik-logo</title><path class="cls-1" d="M125.61,163.67H85.37L43.22,85.33C37.47,74.68,33.43,66.17,26,47.43h-.64c1.06,18.74,1.49,27.25,1.49,37.9v78.34H0V19.33H40.45L81.12,95.54a335.7,335.7,0,0,1,18.52,40.24h.64c-1.49-18.94-1.49-29.59-1.49-40.24V19.33h26.82Z" transform="translate(0 -19.33)"/><path class="cls-1" d="M291.17,87l66,76.64H318L273.07,107h-.64l-4.25,5.11v51.52H239.65V19.33h28.53v59H269l47.69-59h35.76Z" transform="translate(0 -19.33)"/><path class="cls-1" d="M510.61,19.33V163.67H482.08v-63H416.72v63H388.19V19.33h28.53V77.87h65.36V19.33Z" transform="translate(0 -19.33)"/><path class="cls-1" d="M655.07,19.33V141.74H720v21.93H626.54V19.33Z" transform="translate(0 -19.33)"/><path class="cls-1" d="M167.42,160.37V63.74a3.3,3.3,0,0,1,3.3-3.3h21.93a3.3,3.3,0,0,1,3.3,3.3v96.63a3.3,3.3,0,0,1-3.3,3.3H170.72A3.3,3.3,0,0,1,167.42,160.37Z" transform="translate(0 -19.33)"/><path class="cls-1" d="M554.31,160.37V63.74a3.3,3.3,0,0,1,3.3-3.3h21.93a3.3,3.3,0,0,1,3.3,3.3v96.63a3.3,3.3,0,0,1-3.3,3.3H557.61A3.3,3.3,0,0,1,554.31,160.37Z" transform="translate(0 -19.33)"/><circle class="cls-2" cx="568.49" cy="14.33" r="13.92"/><circle class="cls-2" cx="182.39" cy="14.33" r="13.92"/></svg>