<svg id="Layer_1" data-name="Layer 1" xmlns="http://www.w3.org/2000/svg" viewBox="0 0 696.8 144.17"><defs><style>.cls-1{fill:#fff;}</style></defs><title>iamnikhik-logo-content</title><path class="cls-1" d="M9.4,26.87h0a7,7,0,0,1-7-7V9.41a7,7,0,0,1,7-7h0a7,7,0,0,1,7,7V19.89A7,7,0,0,1,9.4,26.87Zm0,117.29h0a7,7,0,0,1-7-7V46.36a7,7,0,0,1,7-7h0a7,7,0,0,1,7,7v90.82A7,7,0,0,1,9.4,144.16Z" transform="translate(-2.4 -2.41)"/><path class="cls-1" d="M139.2,91.58v45.6a7,7,0,0,1-7,7h0a7,7,0,0,1-7-7V127.8q-17,19.49-41.76,18.75-21.6-.72-36.81-16.73a53.33,53.33,0,0,1-15.2-38A53.93,53.93,0,0,1,47.8,52.38Q64.17,35.94,87,36.8a52.63,52.63,0,0,1,37.5,16.82Q139.94,69.71,139.2,91.58Zm-14-1a40.7,40.7,0,0,0-11.8-28.37A36.88,36.88,0,0,0,86,50.4,38.92,38.92,0,0,0,57.41,62.2a39.52,39.52,0,0,0-12,28.55,40.28,40.28,0,0,0,11,29Q67.74,132.22,83.8,133q17.31.74,29.57-12.07a41.09,41.09,0,0,0,11.86-30.36Z" transform="translate(-2.4 -2.41)"/><path class="cls-1" d="M297.39,144.16h0a7.26,7.26,0,0,1-7.26-7.26h0V79.82a32.1,32.1,0,0,0-7-20.78A22.51,22.51,0,0,0,264.8,50.4a28.75,28.75,0,0,0-20,7.54,24.23,24.23,0,0,0-8.37,18.75V136.9a7.26,7.26,0,0,1-7.26,7.26H229a7.26,7.26,0,0,1-7.26-7.26V76.69a24.22,24.22,0,0,0-8.36-18.75,28.84,28.84,0,0,0-20-7.54q-11.4,0-18.2,8.55t-6.8,20.87V136.9a7.26,7.26,0,0,1-7.26,7.26h0a7.27,7.27,0,0,1-7.27-7.26V81.47q0-19.66,11.22-31.62,10.47-11.2,27.58-12.68,18.57-1.5,31,12.39a7.21,7.21,0,0,0,10.18.51,6.14,6.14,0,0,0,.51-.51q12.48-13.89,31.06-12.39,17.1,1.47,27.76,12.68,11.4,12,11.4,31.62V136.9A7.26,7.26,0,0,1,297.39,144.16Z" transform="translate(-2.4 -2.41)"/><path class="cls-1" d="M405.22,144.16h0a7,7,0,0,1-7-7V82.94a30.91,30.91,0,0,0-9.7-22.79q-9.72-9.55-22.64-9.56A31.48,31.48,0,0,0,343,60.15a30.88,30.88,0,0,0-9.7,22.79v54.24a7,7,0,0,1-7,7h0a7,7,0,0,1-7-7V84.41q0-20.4,13.24-33.91T365.88,37Q385.73,37,399,50.52T412.2,84.43V137.2A7,7,0,0,1,405.22,144.16Z" transform="translate(-2.4 -2.41)"/><path class="cls-1" d="M433.9,26.87h0a7,7,0,0,1-7-7V9.41a7,7,0,0,1,7-7h0a7,7,0,0,1,7,7V19.89A7,7,0,0,1,433.9,26.87Zm0,117.29h0a7,7,0,0,1-7-7V46.36a7,7,0,0,1,7-7h0a7,7,0,0,1,7,7v90.82A7,7,0,0,1,433.9,144.16Z" transform="translate(-2.4 -2.41)"/><path class="cls-1" d="M525.23,144.16h0a7,7,0,0,1-5.36-2.52l-28.9-35a3.84,3.84,0,0,0-5.39-.57,4.54,4.54,0,0,0-.61.63L472.6,122.34a6.48,6.48,0,0,0-1.41,4v10.24a7.54,7.54,0,0,1-7.54,7.53h0a7.54,7.54,0,0,1-7.54-7.53V9.68a7.26,7.26,0,0,1,7.26-7.26h0a7.27,7.27,0,0,1,7.27,7.26V95a2.48,2.48,0,0,0,4.44,1.51l42-54.32a7.35,7.35,0,0,1,5.8-2.85h0a6.86,6.86,0,0,1,5.47,11L498.54,89.77a3.83,3.83,0,0,0,.12,4.78l31.89,38.19a7,7,0,0,1-5.32,11.42Z" transform="translate(-2.4 -2.41)"/><path class="cls-1" d="M663.07,26.87h0A7.08,7.08,0,0,1,656,19.8h0V9.5a7.08,7.08,0,0,1,7.08-7.08h0a7.08,7.08,0,0,1,7.08,7.08h0V19.79a7.08,7.08,0,0,1-7.08,7.08ZM663,144.16h0a7,7,0,0,1-7-7V46.36a7,7,0,0,1,7-7h0a7,7,0,0,1,7,7v90.82a7,7,0,0,1-7,7Z" transform="translate(-2.4 -2.41)"/><path class="cls-1" d="M692.2,144.16h0a7,7,0,0,1-7-7V9.41a7,7,0,0,1,7-7h0a7,7,0,0,1,7,7V137.18A7,7,0,0,1,692.2,144.16Z" transform="translate(-2.4 -2.41)"/><path class="cls-1" d="M635.57,144.16h0a7,7,0,0,1-7-7v-54a31,31,0,0,0-9.77-22.89Q609,50.58,595.8,51a32.12,32.12,0,0,0-22.52,8.92Q564.06,68.6,564.06,82v55.16a7,7,0,0,1-7,7h0a7,7,0,0,1-7-7V9.41a7,7,0,0,1,7-7h0a7,7,0,0,1,7,7V46.82a2.84,2.84,0,0,0,4.81,2,38.91,38.91,0,0,1,26-11.13A43.31,43.31,0,0,1,628.5,50.56q14.1,13.78,14.1,34v52.58a7,7,0,0,1-7,7Z" transform="translate(-2.4 -2.41)"/></svg>