<svg id="Layer_1" data-name="Layer 1" xmlns="http://www.w3.org/2000/svg" viewBox="0 0 712.77 73.16"><defs><style>.cls-1{fill:#d33200;}.cls-2{fill:#fff;}</style></defs><title>iamnikhil-logo</title><circle class="cls-1" cx="8.1" cy="8.1" r="8.1"/><circle class="cls-1" cx="374.42" cy="8.1" r="8.1"/><circle class="cls-1" cx="619.36" cy="8.1" r="8.1"/><path class="cls-2" d="M4.45,128.08V77.63H18.61v50.45Z" transform="translate(-3.61 -54.92)"/><path class="cls-2" d="M95.85,107.05H74.19l-6.55,21H53.48L78.2,56.44H92.78l24.73,71.64h-15ZM77.46,95.75H92.57c-2.22-7-4.54-14.06-7.39-26.21h-.32C82,81.69,79.68,88.77,77.46,95.75Z" transform="translate(-3.61 -54.92)"/><path class="cls-2" d="M225.6,56.54l2.54,71.54H214l-.85-37a110.21,110.21,0,0,1,.74-16.91h-.31A125.23,125.23,0,0,1,208.8,91.1L196.75,126H182L170.23,91.1c-2.53-7-3.8-11.1-4.65-16.49h-.32a99.85,99.85,0,0,1,.64,16.49l-.74,37H151.85l2.43-71.54h16.27L183,91.1a224.46,224.46,0,0,1,6.65,23H190a226.56,226.56,0,0,1,6.66-23l12.68-34.56Z" transform="translate(-3.61 -54.92)"/><path class="cls-2" d="M330.52,128.08h-20L289.63,89.19a155.37,155.37,0,0,1-8.56-18.8h-.32c.53,9.29.74,13.52.74,18.8v38.89H268.18V56.44h20.07l20.19,37.83a165.66,165.66,0,0,1,9.19,20H318c-.74-9.41-.74-14.69-.74-20V56.44h13.31Z" transform="translate(-3.61 -54.92)"/><path class="cls-2" d="M370.56,128.08V77.63h14.16v50.45Z" transform="translate(-3.61 -54.92)"/><path class="cls-2" d="M450.65,90l32.76,38H464L441.67,100h-.32l-2.11,2.54v25.57H425.08V56.44h14.16V85.71h.42l23.67-29.27h17.76Z" transform="translate(-3.61 -54.92)"/><path class="cls-2" d="M575.12,56.44v71.64H561V96.8H528.52v31.28H514.36V56.44h14.16V85.5H561V56.44Z" transform="translate(-3.61 -54.92)"/><path class="cls-2" d="M615.48,128.08V77.63h14.16v50.45Z" transform="translate(-3.61 -54.92)"/><path class="cls-2" d="M684.16,56.44V117.2h32.23v10.88H670V56.44Z" transform="translate(-3.61 -54.92)"/></svg>