<svg id="Layer_1" data-name="Layer 1" xmlns="http://www.w3.org/2000/svg" viewBox="0 0 182 182"><defs><style>.cls-1{fill:#070100;}.cls-2{fill:#fa0;}.cls-3{fill:#e20024;}</style></defs><title>iamnikhik-logo</title><circle class="cls-1" cx="91" cy="91" r="91"/><path class="cls-2" d="M131.72,143h-17a4.37,4.37,0,0,1-4.37-4.36V70.13A4.37,4.37,0,0,0,106,65.76H50.28a4.36,4.36,0,0,1-4.36-4.36v-17A4.36,4.36,0,0,1,50.28,40h60q12.08,0,18.12,3.77a15.1,15.1,0,0,1,6.69,9.56q1,3.83,1,12.42v72.89A4.36,4.36,0,0,1,131.72,143Z" transform="translate(0 -0.5)"/><rect class="cls-3" x="45.92" y="78.09" width="25.76" height="64.41" rx="4.36"/></svg>